<?xml version="1.0" standalone="no"?>
<!DOCTYPE svg PUBLIC "-//W3C//DTD SVG 20010904//EN"
 "http://www.w3.org/TR/2001/REC-SVG-20010904/DTD/svg10.dtd">
<svg version="1.0" xmlns="http://www.w3.org/2000/svg"
 width="48.000000pt" height="48.000000pt" viewBox="0 0 48.000000 48.000000"
 preserveAspectRatio="xMidYMid meet">

<g transform="translate(0.000000,48.000000) scale(0.100000,-0.100000)"
fill="#000000" stroke="none">
<path d="M172 429 c-18 -5 -50 -27 -72 -49 -46 -46 -66 -105 -55 -165 7 -39 8
-77 3 -140 -3 -28 -1 -30 27 -27 36 3 78 3 166 0 57 -2 71 1 106 24 62 41 88
90 88 168 0 77 -26 127 -85 166 -43 29 -125 39 -178 23z m148 -42 c51 -27 90
-90 90 -147 0 -57 -39 -120 -91 -148 -37 -20 -52 -22 -94 -17 -27 4 -71 7 -97
7 l-47 -1 1 47 c0 26 -3 70 -7 97 -5 42 -3 57 17 94 28 52 91 91 148 91 20 0
56 -10 80 -23z"/>
</g>
</svg>
